<svg width="128" height="128" viewBox="0 0 128 128" fill="none" xmlns="http://www.w3.org/2000/svg">
<path fill-rule="evenodd" clip-rule="evenodd" d="M43.5 35C43.5 28.0964 49.0964 22.5 56 22.5H72C78.9036 22.5 84.5 28.0964 84.5 35V51C84.5 57.9036 78.9036 63.5 72 63.5H56C49.0964 63.5 43.5 57.9036 43.5 51V35ZM56 27.5C51.8579 27.5 48.5 30.8579 48.5 35V51C48.5 55.1421 51.8579 58.5 56 58.5H72C76.1421 58.5 79.5 55.1421 79.5 51V35C79.5 30.8579 76.1421 27.5 72 27.5H56ZM86.5 78C86.5 71.0964 92.0965 65.5 99 65.5H115C121.904 65.5 127.5 71.0964 127.5 78V94C127.5 100.904 121.904 106.5 115 106.5H99C92.0965 106.5 86.5 100.904 86.5 94V78ZM99 70.5C94.8579 70.5 91.5 73.8579 91.5 78V94C91.5 98.1421 94.8579 101.5 99 101.5H115C119.142 101.5 122.5 98.1421 122.5 94V78C122.5 73.8579 119.142 70.5 115 70.5H99ZM0.5 78C0.5 71.0964 6.09644 65.5 13 65.5H29C35.9036 65.5 41.5 71.0964 41.5 78V94C41.5 100.904 35.9036 106.5 29 106.5H13C6.09644 106.5 0.5 100.904 0.5 94V78ZM13 70.5C8.85787 70.5 5.5 73.8579 5.5 78V94C5.5 98.1421 8.85787 101.5 13 101.5H29C33.1421 101.5 36.5 98.1421 36.5 94V78C36.5 73.8579 33.1421 70.5 29 70.5H13ZM43.5 78C43.5 71.0964 49.0964 65.5 56 65.5H72C78.9036 65.5 84.5 71.0964 84.5 78V94C84.5 100.904 78.9036 106.5 72 106.5H56C49.0964 106.5 43.5 100.904 43.5 94V78ZM56 70.5C51.8579 70.5 48.5 73.8579 48.5 78V94C48.5 98.1421 51.8579 101.5 56 101.5H72C76.1421 101.5 79.5 98.1421 79.5 94V78C79.5 73.8579 76.1421 70.5 72 70.5H56Z" fill="#E0E9FB" fill-opacity="0.7"/>
<path d="M110.561 77.6562C111.928 77.7344 113.051 78.2617 113.93 79.2383C114.809 80.1953 115.443 81.2891 115.834 82.5195C116.225 83.75 116.42 85.0098 116.42 86.2988C116.42 87.5879 116.225 88.8476 115.834 90.0781C115.463 91.3086 114.828 92.4121 113.93 93.3887C113.051 94.3457 111.928 94.8633 110.561 94.9414H99.7793C99.252 94.9219 98.8027 94.7363 98.4316 94.3848C98.0801 94.0137 97.8945 93.5644 97.875 93.0371V85.7715C97.8945 85.2246 98.0996 84.7754 98.4902 84.4238C98.8809 84.0527 99.3496 83.8672 99.8965 83.8672C100.424 83.8867 100.873 84.082 101.244 84.4531C101.615 84.8047 101.811 85.2441 101.83 85.7715V90.2246C101.83 90.7519 102.104 91.0156 102.65 91.0156H109.564C110.307 90.9766 110.922 90.6934 111.41 90.166C111.898 89.6387 112.25 89.043 112.465 88.3789C112.699 87.6953 112.816 87.0019 112.816 86.2988C112.816 85.5957 112.699 84.9121 112.465 84.248C112.25 83.5644 111.898 82.959 111.41 82.4316C110.922 81.9043 110.307 81.6211 109.564 81.582H99.7793C98.6074 81.4844 97.9727 80.8496 97.875 79.6777C97.875 79.1309 98.0508 78.6621 98.4024 78.2715C98.7734 77.8809 99.2324 77.6758 99.7793 77.6562H110.561Z" fill="#E0E9FB"/>
<path d="M73.8008 79.6191C73.8008 80.166 73.6055 80.625 73.2148 80.9961C72.8438 81.3867 72.3848 81.582 71.8379 81.582H60.1191C59.748 81.6016 59.4355 81.6895 59.1816 81.8457C58.9473 81.9824 58.7715 82.1484 58.6543 82.3438C58.5371 82.5195 58.4785 82.7051 58.4785 82.9004C58.4785 83.0957 58.5371 83.291 58.6543 83.4863C58.7715 83.6621 58.9473 83.8281 59.1816 83.9844C59.4355 84.1211 59.748 84.1992 60.1191 84.2188H68.4395C69.8066 84.2578 70.9297 84.5801 71.8086 85.1855C72.707 85.7715 73.3418 86.4551 73.7129 87.2363C74.1035 87.998 74.2988 88.7793 74.2988 89.5801C74.2988 90.3613 74.1035 91.1426 73.7129 91.9238C73.3223 92.6855 72.6875 93.3691 71.8086 93.9746C70.9297 94.5605 69.8066 94.8535 68.4395 94.8535H68.2637C68.1465 94.873 68.0293 94.8828 67.9121 94.8828H56.8379C56.291 94.8828 55.8223 94.6973 55.4316 94.3262C55.0605 93.9355 54.875 93.4668 54.875 92.9199C54.875 92.373 55.0703 91.9141 55.4609 91.543C55.832 91.1523 56.291 90.957 56.8379 90.957H68.6152C68.9863 90.9766 69.2891 90.9082 69.5234 90.752C69.7773 90.5957 69.9629 90.4199 70.0801 90.2246C70.1973 90.0098 70.2559 89.7949 70.2559 89.5801C70.2559 89.4434 70.1973 89.2578 70.0801 89.0234C69.9629 88.7695 69.7773 88.5645 69.5234 88.4082C69.2891 88.252 68.9863 88.1641 68.6152 88.1445H60.2949C58.9277 88.1055 57.7949 87.793 56.8965 87.207C56.0176 86.6211 55.3828 85.957 54.9922 85.2148C54.6211 84.4531 54.4355 83.6816 54.4355 82.9004C54.4355 82.1387 54.6309 81.3867 55.0215 80.6445C55.4121 79.8828 56.0469 79.209 56.9258 78.623C57.8047 78.0371 58.9277 77.7246 60.2949 77.6855H60.4707C60.5879 77.666 60.7051 77.6562 60.8223 77.6562H71.8379C72.3848 77.6562 72.8438 77.8516 73.2148 78.2422C73.6055 78.6133 73.8008 79.0723 73.8008 79.6191Z" fill="#E0E9FB"/>
<path d="M18.4375 90.4004C18.4375 89.8535 18.623 89.3945 18.9941 89.0234C19.3848 88.6328 19.8535 88.4375 20.4004 88.4375H24.8828L24.1211 86.2695C23.8086 85.4688 23.4961 84.7168 23.1836 84.0137C22.8906 83.291 22.5488 82.6367 22.1582 82.0508C21.8066 81.4648 21.4062 81.1523 20.957 81.1133C20.4883 81.1523 20.0684 81.4648 19.6973 82.0508C19.3262 82.6367 18.9844 83.291 18.6719 84.0137C18.3789 84.7168 18.0762 85.4688 17.7637 86.2695L14.9805 93.8867C14.7852 94.2969 14.5312 94.6387 14.2188 94.9121C13.9258 95.166 13.4766 95.293 12.8711 95.293C12.3047 95.293 11.8359 95.0977 11.4648 94.707C11.1133 94.3164 10.957 93.8477 10.9961 93.3008C11.0156 93.0469 11.0742 92.8125 11.1719 92.5977L14.3945 84.2773C15.293 82.0898 16.1914 80.3223 17.0898 78.9746C17.9688 77.6465 19.2578 76.9727 20.957 76.9531C22.6367 76.9727 23.916 77.6465 24.7949 78.9746C25.6934 80.2832 26.5918 82.0508 27.4902 84.2773L30.7129 92.5977C30.8105 92.8125 30.8691 93.0469 30.8887 93.3008C30.9277 93.8477 30.7617 94.3164 30.3906 94.707C30.0391 95.0977 29.5801 95.293 29.0137 95.293C28.3691 95.293 27.8906 95.166 27.5781 94.9121C27.2852 94.6387 27.041 94.2969 26.8457 93.8867L26.2891 92.3633H20.4004C19.8535 92.3633 19.3945 92.168 19.0234 91.7773C18.6328 91.4062 18.4375 90.9473 18.4375 90.4004Z" fill="#E0E9FB"/>
<path d="M60.0566 52.6152C59.3926 52.6152 58.7285 52.498 58.0645 52.2637C57.4199 52.0293 56.7949 51.6875 56.1895 51.2383C55.584 50.7695 55.0566 50.1543 54.6074 49.3926C54.1582 48.6309 53.9141 47.7227 53.875 46.668V36.0918C53.875 35.5449 54.0703 35.0957 54.4609 34.7441C54.8711 34.373 55.3496 34.1875 55.8965 34.1875C57.0684 34.2852 57.7031 34.9199 57.8008 36.0918V46.4336C57.8203 46.9023 57.918 47.3027 58.0938 47.6348C58.2695 47.9473 58.4648 48.2012 58.6797 48.3965C58.8945 48.5723 59.1094 48.709 59.3242 48.8066C59.5586 48.8848 59.793 48.9238 60.0273 48.9238C60.2617 48.9238 60.4961 48.8848 60.7305 48.8066C60.9648 48.709 61.1895 48.5723 61.4043 48.3965C61.6191 48.2012 61.8145 47.9473 61.9902 47.6348C62.166 47.3027 62.2539 46.9023 62.2539 46.4336V36.0918C62.2539 35.5449 62.4492 35.0957 62.8398 34.7441C63.25 34.373 63.7285 34.1875 64.2754 34.1875C65.4473 34.2852 66.0918 34.9199 66.209 36.0918V46.4336C66.2285 46.9023 66.3262 47.293 66.502 47.6055C66.6777 47.9375 66.873 48.2012 67.0879 48.3965C67.3027 48.5723 67.5176 48.709 67.7324 48.8066C67.9668 48.8848 68.2012 48.9238 68.4355 48.9238C68.6699 48.9238 68.9043 48.8848 69.1387 48.8066C69.373 48.709 69.5977 48.5723 69.8125 48.3965C70.0273 48.2012 70.2227 47.9473 70.3984 47.6348C70.5742 47.3027 70.6621 46.9023 70.6621 46.4336V36.0918C70.6621 35.5449 70.8574 35.0957 71.248 34.7441C71.6582 34.373 72.1367 34.1875 72.6836 34.1875C73.8555 34.2852 74.5 34.9199 74.6172 36.0918V46.668C74.6172 47.7227 74.3828 48.6309 73.9141 49.3926C73.4648 50.1543 72.9375 50.7695 72.332 51.2383C71.7461 51.6875 71.1211 52.0293 70.457 52.2637C69.8125 52.498 69.1484 52.6152 68.4648 52.6152C67.8008 52.6152 67.1367 52.498 66.4727 52.2637C65.8281 52.0293 65.2031 51.6777 64.5977 51.209C64.4805 51.1309 64.373 51.043 64.2754 50.9453C64.1582 51.043 64.0508 51.1309 63.9531 51.209C63.3477 51.6777 62.7129 52.0293 62.0488 52.2637C61.4043 52.498 60.7402 52.6152 60.0566 52.6152Z" fill="#E0E9FB"/>
</svg>
