<svg width="128" height="128" viewBox="0 0 128 85" fill="none" xmlns="http://www.w3.org/2000/svg">
<path d="M89 56C89 50.4771 93.4772 46 99 46H115C120.523 46 125 50.4771 125 56V72C125 77.5228 120.523 82 115 82H99C93.4772 82 89 77.5228 89 72V56Z" stroke="#E0E9FB" stroke-opacity="0.7" stroke-width="5"/>
<path d="M46 56C46 50.4772 50.4772 46 56 46H72C77.5228 46 82 50.4772 82 56V72C82 77.5228 77.5228 82 72 82H56C50.4772 82 46 77.5228 46 72V56Z" stroke="#E0E9FB" stroke-opacity="0.7" stroke-width="5"/>
<path d="M3 56C3 50.4772 7.47715 46 13 46H29C34.5228 46 39 50.4772 39 56V72C39 77.5228 34.5228 82 29 82H13C7.47715 82 3 77.5228 3 72V56Z" stroke="#E0E9FB" stroke-opacity="0.7" stroke-width="5"/>
<path d="M46 13C46 7.47715 50.4772 3 56 3H72C77.5228 3 82 7.47715 82 13V29C82 34.5228 77.5228 39 72 39H56C50.4772 39 46 34.5228 46 29V13Z" stroke="#E0E9FB" stroke-opacity="0.7" stroke-width="5"/>
<path d="M110.561 55.6562C111.928 55.7344 113.051 56.2617 113.93 57.2383C114.809 58.1953 115.443 59.2891 115.834 60.5195C116.225 61.75 116.42 63.0098 116.42 64.2988C116.42 65.5879 116.225 66.8476 115.834 68.0781C115.463 69.3086 114.828 70.4121 113.93 71.3887C113.051 72.3457 111.928 72.8633 110.561 72.9414H99.7793C99.252 72.9219 98.8027 72.7363 98.4316 72.3848C98.0801 72.0137 97.8945 71.5644 97.875 71.0371V63.7715C97.8945 63.2246 98.0996 62.7754 98.4902 62.4238C98.8809 62.0527 99.3496 61.8672 99.8965 61.8672C100.424 61.8867 100.873 62.082 101.244 62.4531C101.615 62.8047 101.811 63.2441 101.83 63.7715V68.2246C101.83 68.7519 102.104 69.0156 102.65 69.0156H109.564C110.307 68.9766 110.922 68.6934 111.41 68.166C111.898 67.6387 112.25 67.043 112.465 66.3789C112.699 65.6953 112.816 65.0019 112.816 64.2988C112.816 63.5957 112.699 62.9121 112.465 62.248C112.25 61.5644 111.898 60.959 111.41 60.4316C110.922 59.9043 110.307 59.6211 109.564 59.582H99.7793C98.6074 59.4844 97.9727 58.8496 97.875 57.6777C97.875 57.1309 98.0508 56.6621 98.4024 56.2715C98.7734 55.8809 99.2324 55.6758 99.7793 55.6562H110.561Z" fill="#E0E9FB"/>
<path d="M73.8008 57.6191C73.8008 58.166 73.6055 58.625 73.2148 58.9961C72.8438 59.3867 72.3848 59.582 71.8379 59.582H60.1191C59.748 59.6016 59.4355 59.6895 59.1816 59.8457C58.9473 59.9824 58.7715 60.1484 58.6543 60.3438C58.5371 60.5195 58.4785 60.7051 58.4785 60.9004C58.4785 61.0957 58.5371 61.291 58.6543 61.4863C58.7715 61.6621 58.9473 61.8281 59.1816 61.9844C59.4355 62.1211 59.748 62.1992 60.1191 62.2188H68.4395C69.8066 62.2578 70.9297 62.5801 71.8086 63.1855C72.707 63.7715 73.3418 64.4551 73.7129 65.2363C74.1035 65.998 74.2988 66.7793 74.2988 67.5801C74.2988 68.3613 74.1035 69.1426 73.7129 69.9238C73.3223 70.6855 72.6875 71.3691 71.8086 71.9746C70.9297 72.5605 69.8066 72.8535 68.4395 72.8535H68.2637C68.1465 72.873 68.0293 72.8828 67.9121 72.8828H56.8379C56.291 72.8828 55.8223 72.6973 55.4316 72.3262C55.0605 71.9355 54.875 71.4668 54.875 70.9199C54.875 70.373 55.0703 69.9141 55.4609 69.543C55.832 69.1523 56.291 68.957 56.8379 68.957H68.6152C68.9863 68.9766 69.2891 68.9082 69.5234 68.752C69.7773 68.5957 69.9629 68.4199 70.0801 68.2246C70.1973 68.0098 70.2559 67.7949 70.2559 67.5801C70.2559 67.4434 70.1973 67.2578 70.0801 67.0234C69.9629 66.7695 69.7773 66.5645 69.5234 66.4082C69.2891 66.252 68.9863 66.1641 68.6152 66.1445H60.2949C58.9277 66.1055 57.7949 65.793 56.8965 65.207C56.0176 64.6211 55.3828 63.957 54.9922 63.2148C54.6211 62.4531 54.4355 61.6816 54.4355 60.9004C54.4355 60.1387 54.6309 59.3867 55.0215 58.6445C55.4121 57.8828 56.0469 57.209 56.9258 56.623C57.8047 56.0371 58.9277 55.7246 60.2949 55.6855H60.4707C60.5879 55.666 60.7051 55.6562 60.8223 55.6562H71.8379C72.3848 55.6562 72.8438 55.8516 73.2148 56.2422C73.6055 56.6133 73.8008 57.0723 73.8008 57.6191Z" fill="#E0E9FB"/>
<path d="M18.4375 68.4004C18.4375 67.8535 18.623 67.3945 18.9941 67.0234C19.3848 66.6328 19.8535 66.4375 20.4004 66.4375H24.8828L24.1211 64.2695C23.8086 63.4688 23.4961 62.7168 23.1836 62.0137C22.8906 61.291 22.5488 60.6367 22.1582 60.0508C21.8066 59.4648 21.4062 59.1523 20.957 59.1133C20.4883 59.1523 20.0684 59.4648 19.6973 60.0508C19.3262 60.6367 18.9844 61.291 18.6719 62.0137C18.3789 62.7168 18.0762 63.4688 17.7637 64.2695L14.9805 71.8867C14.7852 72.2969 14.5312 72.6387 14.2188 72.9121C13.9258 73.166 13.4766 73.293 12.8711 73.293C12.3047 73.293 11.8359 73.0977 11.4648 72.707C11.1133 72.3164 10.957 71.8477 10.9961 71.3008C11.0156 71.0469 11.0742 70.8125 11.1719 70.5977L14.3945 62.2773C15.293 60.0898 16.1914 58.3223 17.0898 56.9746C17.9688 55.6465 19.2578 54.9727 20.957 54.9531C22.6367 54.9727 23.916 55.6465 24.7949 56.9746C25.6934 58.2832 26.5918 60.0508 27.4902 62.2773L30.7129 70.5977C30.8105 70.8125 30.8691 71.0469 30.8887 71.3008C30.9277 71.8477 30.7617 72.3164 30.3906 72.707C30.0391 73.0977 29.5801 73.293 29.0137 73.293C28.3691 73.293 27.8906 73.166 27.5781 72.9121C27.2852 72.6387 27.041 72.2969 26.8457 71.8867L26.2891 70.3633H20.4004C19.8535 70.3633 19.3945 70.168 19.0234 69.7773C18.6328 69.4062 18.4375 68.9473 18.4375 68.4004Z" fill="#E0E9FB"/>
<path d="M60.0566 30.6152C59.3926 30.6152 58.7285 30.498 58.0645 30.2637C57.4199 30.0293 56.7949 29.6875 56.1895 29.2383C55.584 28.7695 55.0566 28.1543 54.6074 27.3926C54.1582 26.6309 53.9141 25.7227 53.875 24.668V14.0918C53.875 13.5449 54.0703 13.0957 54.4609 12.7441C54.8711 12.373 55.3496 12.1875 55.8965 12.1875C57.0684 12.2852 57.7031 12.9199 57.8008 14.0918V24.4336C57.8203 24.9023 57.918 25.3027 58.0938 25.6348C58.2695 25.9473 58.4648 26.2012 58.6797 26.3965C58.8945 26.5723 59.1094 26.709 59.3242 26.8066C59.5586 26.8848 59.793 26.9238 60.0273 26.9238C60.2617 26.9238 60.4961 26.8848 60.7305 26.8066C60.9648 26.709 61.1895 26.5723 61.4043 26.3965C61.6191 26.2012 61.8145 25.9473 61.9902 25.6348C62.166 25.3027 62.2539 24.9023 62.2539 24.4336V14.0918C62.2539 13.5449 62.4492 13.0957 62.8398 12.7441C63.25 12.373 63.7285 12.1875 64.2754 12.1875C65.4473 12.2852 66.0918 12.9199 66.209 14.0918V24.4336C66.2285 24.9023 66.3262 25.293 66.502 25.6055C66.6777 25.9375 66.873 26.2012 67.0879 26.3965C67.3027 26.5723 67.5176 26.709 67.7324 26.8066C67.9668 26.8848 68.2012 26.9238 68.4355 26.9238C68.6699 26.9238 68.9043 26.8848 69.1387 26.8066C69.373 26.709 69.5977 26.5723 69.8125 26.3965C70.0273 26.2012 70.2227 25.9473 70.3984 25.6348C70.5742 25.3027 70.6621 24.9023 70.6621 24.4336V14.0918C70.6621 13.5449 70.8574 13.0957 71.248 12.7441C71.6582 12.373 72.1367 12.1875 72.6836 12.1875C73.8555 12.2852 74.5 12.9199 74.6172 14.0918V24.668C74.6172 25.7227 74.3828 26.6309 73.9141 27.3926C73.4648 28.1543 72.9375 28.7695 72.332 29.2383C71.7461 29.6875 71.1211 30.0293 70.457 30.2637C69.8125 30.498 69.1484 30.6152 68.4648 30.6152C67.8008 30.6152 67.1367 30.498 66.4727 30.2637C65.8281 30.0293 65.2031 29.6777 64.5977 29.209C64.4805 29.1309 64.373 29.043 64.2754 28.9453C64.1582 29.043 64.0508 29.1309 63.9531 29.209C63.3477 29.6777 62.7129 30.0293 62.0488 30.2637C61.4043 30.498 60.7402 30.6152 60.0566 30.6152Z" fill="#E0E9FB"/>
</svg>
